<svg width="30" height="30" viewBox="0 0 30 30" fill="none" xmlns="http://www.w3.org/2000/svg">
<path d="M15.0001 -0.00012207C6.72005 -0.00012207 0 6.71991 0 14.9999C0 23.28 6.72005 30 15.0001 30C23.2802 30 30.0002 23.28 30.0002 14.9999C30.0002 6.71991 23.2802 -0.00012207 15.0001 -0.00012207ZM10.9351 21.435L5.55004 16.0499C4.96504 15.4649 4.96504 14.5199 5.55004 13.9349C6.13505 13.3499 7.08006 13.3499 7.66506 13.9349L12.0001 18.255L22.3202 7.93491C22.9052 7.34991 23.8502 7.34991 24.4352 7.93491C25.0202 8.51991 25.0202 9.46492 24.4352 10.0499L13.0501 21.435C12.4801 22.02 11.5201 22.02 10.9351 21.435Z" fill="#8574EB"/>
</svg>
