<svg width="37" height="31" viewBox="0 0 37 31" fill="none" xmlns="http://www.w3.org/2000/svg">
<path d="M18.3333 6.05417C22.9333 6.05417 26.6667 9.7875 26.6667 14.3875C26.6667 15.2375 26.5 16.0542 26.2667 16.8208L31.3667 21.9208C33.6833 19.8708 35.5167 17.3042 36.6667 14.3708C33.7833 7.07083 26.6667 1.8875 18.3333 1.8875C16.2167 1.8875 14.1833 2.22083 12.2667 2.8375L15.8833 6.45417C16.6667 6.22083 17.4833 6.05417 18.3333 6.05417ZM2.85 0.4875C2.2 1.1375 2.2 2.1875 2.85 2.8375L6.13333 6.12083C3.43333 8.27083 1.28333 11.1042 0 14.3875C2.88333 21.7042 10 26.8875 18.3333 26.8875C20.8667 26.8875 23.2833 26.3875 25.5167 25.5208L30.05 30.0542C30.7 30.7042 31.75 30.7042 32.4 30.0542C33.05 29.4042 33.05 28.3542 32.4 27.7042L5.21667 0.4875C4.56667 -0.1625 3.5 -0.1625 2.85 0.4875ZM18.3333 22.7208C13.7333 22.7208 10 18.9875 10 14.3875C10 13.1042 10.3 11.8875 10.8167 10.8208L13.4333 13.4375C13.3833 13.7375 13.3333 14.0542 13.3333 14.3875C13.3333 17.1542 15.5667 19.3875 18.3333 19.3875C18.6667 19.3875 18.9667 19.3375 19.2833 19.2708L21.9 21.8875C20.8167 22.4208 19.6167 22.7208 18.3333 22.7208ZM23.2833 13.8375C23.0333 11.5042 21.2 9.6875 18.8833 9.4375L23.2833 13.8375Z" fill="#9B9B9B"/>
</svg>
