<svg width="53" height="53" viewBox="0 0 53 53" fill="none" xmlns="http://www.w3.org/2000/svg">
<circle cx="26.5" cy="26.5" r="26.5" fill="black" fill-opacity="0.38"/>
<path fill-rule="evenodd" clip-rule="evenodd" d="M25.002 36.7175C25.0081 36.8617 24.9925 37.0023 24.9622 37.1446C24.9089 37.3948 24.8059 37.6594 24.6601 37.904C24.2457 38.5992 23.5417 39.0631 22.6354 39.0631C20.5003 39.0631 19.6624 38.0156 18.6132 35.3927C17.9026 33.6162 17.5674 33.1972 16.7695 33.1972V30.8508C18.9046 30.8508 19.7426 31.8983 20.7917 34.5212C21.5023 36.2977 21.8375 36.7167 22.6354 36.7167C22.6354 36.3763 22.6308 36.0748 22.6209 35.6664C22.5979 34.7093 22.5953 34.514 22.6371 34.2581C22.6537 33.6996 22.7979 33.3032 23.0871 32.9099C20.4688 32.3399 18.7028 31.1628 17.6893 29.2535L17.3096 28.3606C16.9397 27.2976 16.7695 26.0931 16.7695 24.7021C16.7695 23.1 17.258 21.6676 18.1703 20.4702C17.8857 19.3321 17.9247 17.9415 18.5531 16.3711L18.7585 15.8579L19.2849 15.6895C19.3554 15.667 19.4411 15.6466 19.5417 15.6308C20.5668 15.4699 22.0255 15.8538 23.9324 17.0753C25.0566 16.8147 26.2404 16.6831 27.4323 16.6831C28.4974 16.6831 29.5565 16.7905 30.568 17.0022C32.4233 15.8403 33.8419 15.4759 34.8394 15.631C34.9389 15.6465 35.0237 15.6665 35.0936 15.6886L35.6233 15.8566L35.8289 16.3729C36.3787 17.7534 36.473 19.0257 36.273 20.139C37.3218 21.3974 37.8867 22.9446 37.8867 24.7021C37.8867 26.1837 37.7806 27.2978 37.4754 28.3817L37.1534 29.2655C36.3103 31.1728 34.451 32.3631 31.5839 32.9301C31.8819 33.3427 32.0208 33.7616 32.0208 34.3704V35.5435C32.0208 36.1121 32.0208 36.1296 32.0195 36.7167C32.0222 36.7589 32.0257 36.7795 32.0296 36.7924C32.0289 36.7926 32.026 37.5495 32.0208 39.0631C31.0215 39.0631 30.2785 38.5757 29.9131 37.807C29.7236 37.4084 29.667 37.0278 29.6745 36.7V34.3704C29.6745 34.272 29.6711 34.2663 29.4315 34.0267C28.7912 33.3864 28.5013 32.9033 28.5013 32.024V30.9627L29.5573 30.8567C32.7005 30.541 34.4101 29.6681 34.9769 28.3929L35.2417 27.6688C35.4525 26.9116 35.5404 25.9896 35.5404 24.7021C35.5404 23.3341 35.0628 22.204 34.1595 21.3011L33.6631 20.8048L33.8657 20.1327C34.0457 19.5356 34.0885 18.8291 33.898 18.0233C33.8664 18.0313 33.8335 18.04 33.7994 18.0495C33.1712 18.2244 32.3869 18.5997 31.4418 19.2314L31.0108 19.5195L30.5075 19.3947C29.5342 19.1534 28.4882 19.0295 27.4323 19.0295C26.258 19.0295 25.0973 19.1789 24.025 19.4712L23.5017 19.6139L23.054 19.3076C22.0765 18.6389 21.2645 18.2413 20.6134 18.0555C20.5669 18.0422 20.5226 18.0304 20.4805 18.0198C20.2533 18.9524 20.3432 19.7187 20.5732 20.2937L20.8491 20.9831L20.3441 21.5275C19.5393 22.3949 19.1159 23.4505 19.1159 24.7021C19.1159 25.848 19.25 26.7975 19.4959 27.5128L19.8029 28.2395C20.5703 29.6796 22.2004 30.546 25.1068 30.8575L26.1549 30.9699V32.024C26.1549 32.9033 25.8651 33.3864 25.2247 34.0267C24.9852 34.2663 24.9818 34.272 24.9818 34.3704L24.9615 34.5872C24.9482 34.6584 24.9482 34.842 24.9666 35.61C24.9751 35.9633 24.9799 36.2428 24.9813 36.535C24.9954 36.5955 24.9975 36.6345 25.002 36.7175Z" fill="white"/>
</svg>
