<svg width="39" height="39" viewBox="0 0 39 39" fill="none" xmlns="http://www.w3.org/2000/svg">
<circle cx="19.5" cy="19.5" r="19.5" fill="#D9D4F9"/>
<path d="M24.375 15.9999H23.5625V14.2856C23.5625 11.92 21.7425 10 19.5 10C17.2575 10 15.4375 11.92 15.4375 14.2856V15.9999H14.625C13.7312 15.9999 13 16.7713 13 17.7142V26.2854C13 27.2283 13.7312 27.9997 14.625 27.9997H24.375C25.2688 27.9997 26 27.2283 26 26.2854V17.7142C26 16.7713 25.2688 15.9999 24.375 15.9999ZM19.5 23.7141C18.6062 23.7141 17.875 22.9426 17.875 21.9998C17.875 21.057 18.6062 20.2855 19.5 20.2855C20.3938 20.2855 21.125 21.057 21.125 21.9998C21.125 22.9426 20.3938 23.7141 19.5 23.7141ZM17.0625 15.9999V14.2856C17.0625 12.8628 18.1512 11.7143 19.5 11.7143C20.8488 11.7143 21.9375 12.8628 21.9375 14.2856V15.9999H17.0625Z" fill="#8574EB"/>
</svg>
