<svg width="181" height="41" viewBox="0 0 181 41" fill="none" xmlns="http://www.w3.org/2000/svg">
<path d="M67.4951 7.49219H64.0234C62.8516 7.49219 62.0898 7.56543 61.7383 7.71191C61.3965 7.84863 61.1719 8.18066 61.0645 8.70801C60.957 9.24512 60.8594 9.6748 60.7715 9.99707L60.6982 10.29H59.1602L59.9365 6.32031H78.5547L77.7783 10.29H76.2402L76.2842 9.99707C76.333 9.64551 76.4062 9.21582 76.5039 8.70801C76.543 8.49316 76.5625 8.27344 76.5625 8.04883C76.5625 7.67773 75.7178 7.49219 74.0283 7.49219H70.5566L67.2314 24.2061C67.0752 25.0068 66.9971 25.7051 66.9971 26.3008C66.9971 26.5938 67.1094 26.7842 67.334 26.8721C67.5684 26.96 68.1592 27.0283 69.1064 27.0771L69.7363 27.0918L69.5605 28H60.332L60.5225 27.0918L61.1523 27.0771C61.9238 27.0771 62.5684 26.999 63.0859 26.8428C63.4766 26.7256 63.8379 25.8467 64.1699 24.2061L67.4951 7.49219ZM77.9688 28L80.3857 15.8857C80.542 15.085 80.6201 14.3916 80.6201 13.8057C80.6201 13.4932 80.5273 13.3027 80.3418 13.2344C80.166 13.166 79.5557 13.0928 78.5107 13.0146L78.2471 13L78.4229 12.0918H84.0332L82.7295 18.5957C85.5518 14.0156 88.2617 11.7256 90.8594 11.7256C91.1133 11.7256 91.3525 11.7695 91.5771 11.8574L90.3467 15.168C89.9072 14.9727 89.4629 14.875 89.0137 14.875C87.1582 14.875 84.9365 16.7744 82.3486 20.5732L80.8545 28H77.9688ZM163.223 25.4658C160.303 27.3994 157.725 28.3662 155.488 28.3662C154.004 28.3662 152.817 27.8633 151.929 26.8574C151.05 25.8516 150.61 24.499 150.61 22.7998C150.61 19.9482 151.606 17.3896 153.599 15.124C155.591 12.8584 157.837 11.7256 160.337 11.7256C161.284 11.7256 162.07 12.0137 162.695 12.5898C163.32 13.1562 163.633 13.8789 163.633 14.7578C163.633 16.7305 162.725 18.3516 160.908 19.6211C159.092 20.8809 156.67 21.584 153.643 21.7305L153.613 22.4775C153.613 23.8838 153.906 24.9385 154.492 25.6416C155.078 26.3447 155.957 26.6963 157.129 26.6963C159.092 26.6963 161.211 25.8516 163.486 24.1621L163.223 25.4658ZM153.701 20.8809C155.918 20.7148 157.656 20.1436 158.916 19.167C160.186 18.1807 160.82 16.9111 160.82 15.3584C160.82 14.5771 160.659 13.9912 160.337 13.6006C160.015 13.21 159.531 13.0146 158.887 13.0146C157.598 13.0146 156.465 13.7568 155.488 15.2412C154.512 16.7158 153.916 18.5957 153.701 20.8809ZM166.709 28L169.126 15.8857C169.282 15.085 169.36 14.3916 169.36 13.8057C169.36 13.4932 169.268 13.3027 169.082 13.2344C168.906 13.166 168.296 13.0928 167.251 13.0146L166.987 13L167.163 12.0918H172.773L171.47 18.5957C174.292 14.0156 177.002 11.7256 179.6 11.7256C179.854 11.7256 180.093 11.7695 180.317 11.8574L179.087 15.168C178.647 14.9727 178.203 14.875 177.754 14.875C175.898 14.875 173.677 16.7744 171.089 20.5732L169.595 28H166.709Z" fill="#393939"/>
<path d="M101.377 28L102.71 21.3203C101.499 23.4492 100.146 25.1582 98.6523 26.4473C97.1582 27.7266 95.7666 28.3662 94.4775 28.3662C93.4326 28.3662 92.6465 28.0586 92.1191 27.4434C91.6016 26.8281 91.3428 25.9102 91.3428 24.6895C91.3428 21.5156 92.4609 18.5664 94.6973 15.8418C96.9336 13.1074 99.3506 11.7402 101.948 11.7402C102.222 11.7402 102.573 11.7695 103.003 11.8281C103.433 11.8867 103.945 11.9746 104.541 12.0918H107.427L105.024 24.2061C104.858 25.0068 104.775 25.7051 104.775 26.3008C104.775 26.6133 104.868 26.8037 105.054 26.8721C105.239 26.9404 105.85 27.0088 106.885 27.0771L107.148 27.0918L106.973 28H101.377ZM103.149 19.123L104.189 14.0254C103.623 13.7324 103.042 13.5176 102.446 13.3809C101.851 13.2344 101.235 13.1611 100.601 13.1611C99.1357 13.1611 97.9492 13.8203 97.041 15.1387C96.3184 16.1934 95.6982 17.5996 95.1807 19.3574C94.6631 21.1152 94.4043 22.6973 94.4043 24.1035C94.4043 24.8066 94.5215 25.334 94.7559 25.6855C94.9902 26.0371 95.3418 26.2129 95.8105 26.2129C97.6758 26.2129 100.122 23.8496 103.149 19.123ZM120.889 26.6084C118.76 27.7803 116.675 28.3662 114.634 28.3662C113.11 28.3662 111.919 27.8779 111.06 26.9014C110.2 25.915 109.771 24.5527 109.771 22.8145C109.771 19.9238 110.781 17.3555 112.803 15.1094C114.824 12.8633 117.134 11.7402 119.731 11.7402C120.317 11.7402 120.913 11.7988 121.519 11.916C122.134 12.0234 122.759 12.1895 123.394 12.4141L122.588 16.4277H121.152L121.182 16.1641C121.211 15.9199 121.265 15.6025 121.343 15.2119C121.372 15.0068 121.387 14.8311 121.387 14.6846C121.387 14.1084 121.138 13.6787 120.64 13.3955C120.142 13.1123 119.395 12.9707 118.398 12.9707C116.816 12.9707 115.493 13.8594 114.429 15.6367C113.364 17.4043 112.832 19.6064 112.832 22.2432C112.832 23.7275 113.14 24.8457 113.755 25.5977C114.37 26.3398 115.293 26.7109 116.523 26.7109C117.588 26.7109 119.126 26.2666 121.138 25.3779L120.889 26.6084ZM124.565 28L128.418 8.66406C128.574 7.86328 128.652 7.16504 128.652 6.56934C128.652 6.25684 128.56 6.06641 128.374 5.99805C128.198 5.92969 127.588 5.86133 126.543 5.79297L126.279 5.77832L126.455 4.87012H132.065L129.224 19.1377H129.443C134.209 16.6963 136.592 14.6455 136.592 12.9854C136.592 12.6338 136.44 12.3359 136.138 12.0918L139.067 11.916C139.204 12.1797 139.272 12.4189 139.272 12.6338C139.272 14.0889 136.802 16.1152 131.86 18.7129C133.823 21.9453 135.581 24.4355 137.134 26.1836C137.603 26.7207 138.345 27.0137 139.36 27.0625L139.683 27.0771L139.507 28H134.688C132.744 25.6465 130.952 22.9072 129.312 19.7822H129.092L127.407 28H124.565ZM141.528 20.0459L142.144 17.8779H148.823L148.208 20.0459H141.528Z" fill="#8574EB"/>
<g filter="url(#filter0_d_0_1)">
<path fill-rule="evenodd" clip-rule="evenodd" d="M19.904 30.1569C24.26 27.4915 27.234 22.1429 27.234 15.9791C27.234 10.1564 24.58 5.06117 20.6141 2.26818C22.637 0.826755 24.9946 0 27.5117 0C35.0322 0 41.1287 7.38001 41.1287 16.4837C41.1287 25.5874 35.0322 32.9674 27.5117 32.9674C24.694 32.9674 22.0762 31.9314 19.904 30.1569ZM19.904 30.1569C18.0232 31.3076 15.8848 31.9582 13.617 31.9582C6.09653 31.9582 0 24.8041 0 15.9791C0 7.15409 6.09653 0 13.617 0C16.1755 0 18.5692 0.828029 20.6141 2.26818C16.5932 5.13333 13.8948 10.4271 13.8948 16.4837C13.8948 22.1765 16.2787 27.1952 19.904 30.1569Z" fill="#8574EB"/>
</g>
<defs>
<filter id="filter0_d_0_1" x="0" y="0" width="49.1289" height="40.9675" filterUnits="userSpaceOnUse" color-interpolation-filters="sRGB">
<feFlood flood-opacity="0" result="BackgroundImageFix"/>
<feColorMatrix in="SourceAlpha" type="matrix" values="0 0 0 0 0 0 0 0 0 0 0 0 0 0 0 0 0 0 127 0" result="hardAlpha"/>
<feOffset dx="4" dy="4"/>
<feGaussianBlur stdDeviation="2"/>
<feComposite in2="hardAlpha" operator="out"/>
<feColorMatrix type="matrix" values="0 0 0 0 1 0 0 0 0 1 0 0 0 0 1 0 0 0 0.2 0"/>
<feBlend mode="normal" in2="BackgroundImageFix" result="effect1_dropShadow_0_1"/>
<feBlend mode="normal" in="SourceGraphic" in2="effect1_dropShadow_0_1" result="shape"/>
</filter>
</defs>
</svg>
