<svg width="34" height="27" viewBox="0 0 34 27" fill="none" xmlns="http://www.w3.org/2000/svg">
<path d="M30 0H3.33333C1.5 0 0.0166667 1.5 0.0166667 3.33333L0 23.3333C0 25.1667 1.5 26.6667 3.33333 26.6667H30C31.8333 26.6667 33.3333 25.1667 33.3333 23.3333V3.33333C33.3333 1.5 31.8333 0 30 0ZM29.3333 7.08333L17.55 14.45C17.0167 14.7833 16.3167 14.7833 15.7833 14.45L4 7.08333C3.58333 6.81667 3.33333 6.36667 3.33333 5.88333C3.33333 4.76667 4.55 4.1 5.5 4.68333L16.6667 11.6667L27.8333 4.68333C28.7833 4.1 30 4.76667 30 5.88333C30 6.36667 29.75 6.81667 29.3333 7.08333Z" fill="#9B9B9B"/>
</svg>
