<svg width="39" height="39" viewBox="0 0 39 39" fill="none" xmlns="http://www.w3.org/2000/svg">
<circle cx="19.5" cy="19.5" r="19.5" fill="#D9D4F9"/>
<path d="M27.6667 20.6667H11.3333C10.05 20.6667 9 21.7167 9 23V27.6667C9 28.95 10.05 30 11.3333 30H27.6667C28.95 30 30 28.95 30 27.6667V23C30 21.7167 28.95 20.6667 27.6667 20.6667ZM13.6667 27.6667C12.3833 27.6667 11.3333 26.6167 11.3333 25.3333C11.3333 24.05 12.3833 23 13.6667 23C14.95 23 16 24.05 16 25.3333C16 26.6167 14.95 27.6667 13.6667 27.6667ZM27.6667 9H11.3333C10.05 9 9 10.05 9 11.3333V16C9 17.2833 10.05 18.3333 11.3333 18.3333H27.6667C28.95 18.3333 30 17.2833 30 16V11.3333C30 10.05 28.95 9 27.6667 9ZM13.6667 16C12.3833 16 11.3333 14.95 11.3333 13.6667C11.3333 12.3833 12.3833 11.3333 13.6667 11.3333C14.95 11.3333 16 12.3833 16 13.6667C16 14.95 14.95 16 13.6667 16Z" fill="#8574EB"/>
</svg>
