<svg width="181" height="42" viewBox="0 0 181 42" fill="none" xmlns="http://www.w3.org/2000/svg">
<path d="M67.4951 8.49219H64.0234C62.8516 8.49219 62.0898 8.56543 61.7383 8.71191C61.3965 8.84863 61.1719 9.18066 61.0645 9.70801C60.957 10.2451 60.8594 10.6748 60.7715 10.9971L60.6982 11.29H59.1602L59.9365 7.32031H78.5547L77.7783 11.29H76.2402L76.2842 10.9971C76.333 10.6455 76.4062 10.2158 76.5039 9.70801C76.543 9.49316 76.5625 9.27344 76.5625 9.04883C76.5625 8.67773 75.7178 8.49219 74.0283 8.49219H70.5566L67.2314 25.2061C67.0752 26.0068 66.9971 26.7051 66.9971 27.3008C66.9971 27.5938 67.1094 27.7842 67.334 27.8721C67.5684 27.96 68.1592 28.0283 69.1064 28.0771L69.7363 28.0918L69.5605 29H60.332L60.5225 28.0918L61.1523 28.0771C61.9238 28.0771 62.5684 27.999 63.0859 27.8428C63.4766 27.7256 63.8379 26.8467 64.1699 25.2061L67.4951 8.49219ZM77.9688 29L80.3857 16.8857C80.542 16.085 80.6201 15.3916 80.6201 14.8057C80.6201 14.4932 80.5273 14.3027 80.3418 14.2344C80.166 14.166 79.5557 14.0928 78.5107 14.0146L78.2471 14L78.4229 13.0918H84.0332L82.7295 19.5957C85.5518 15.0156 88.2617 12.7256 90.8594 12.7256C91.1133 12.7256 91.3525 12.7695 91.5771 12.8574L90.3467 16.168C89.9072 15.9727 89.4629 15.875 89.0137 15.875C87.1582 15.875 84.9365 17.7744 82.3486 21.5732L80.8545 29H77.9688ZM163.223 26.4658C160.303 28.3994 157.725 29.3662 155.488 29.3662C154.004 29.3662 152.817 28.8633 151.929 27.8574C151.05 26.8516 150.61 25.499 150.61 23.7998C150.61 20.9482 151.606 18.3896 153.599 16.124C155.591 13.8584 157.837 12.7256 160.337 12.7256C161.284 12.7256 162.07 13.0137 162.695 13.5898C163.32 14.1562 163.633 14.8789 163.633 15.7578C163.633 17.7305 162.725 19.3516 160.908 20.6211C159.092 21.8809 156.67 22.584 153.643 22.7305L153.613 23.4775C153.613 24.8838 153.906 25.9385 154.492 26.6416C155.078 27.3447 155.957 27.6963 157.129 27.6963C159.092 27.6963 161.211 26.8516 163.486 25.1621L163.223 26.4658ZM153.701 21.8809C155.918 21.7148 157.656 21.1436 158.916 20.167C160.186 19.1807 160.82 17.9111 160.82 16.3584C160.82 15.5771 160.659 14.9912 160.337 14.6006C160.015 14.21 159.531 14.0146 158.887 14.0146C157.598 14.0146 156.465 14.7568 155.488 16.2412C154.512 17.7158 153.916 19.5957 153.701 21.8809ZM166.709 29L169.126 16.8857C169.282 16.085 169.36 15.3916 169.36 14.8057C169.36 14.4932 169.268 14.3027 169.082 14.2344C168.906 14.166 168.296 14.0928 167.251 14.0146L166.987 14L167.163 13.0918H172.773L171.47 19.5957C174.292 15.0156 177.002 12.7256 179.6 12.7256C179.854 12.7256 180.093 12.7695 180.317 12.8574L179.087 16.168C178.647 15.9727 178.203 15.875 177.754 15.875C175.898 15.875 173.677 17.7744 171.089 21.5732L169.595 29H166.709Z" fill="#393939"/>
<path d="M101.377 29L102.71 22.3203C101.499 24.4492 100.146 26.1582 98.6523 27.4473C97.1582 28.7266 95.7666 29.3662 94.4775 29.3662C93.4326 29.3662 92.6465 29.0586 92.1191 28.4434C91.6016 27.8281 91.3428 26.9102 91.3428 25.6895C91.3428 22.5156 92.4609 19.5664 94.6973 16.8418C96.9336 14.1074 99.3506 12.7402 101.948 12.7402C102.222 12.7402 102.573 12.7695 103.003 12.8281C103.433 12.8867 103.945 12.9746 104.541 13.0918H107.427L105.024 25.2061C104.858 26.0068 104.775 26.7051 104.775 27.3008C104.775 27.6133 104.868 27.8037 105.054 27.8721C105.239 27.9404 105.85 28.0088 106.885 28.0771L107.148 28.0918L106.973 29H101.377ZM103.149 20.123L104.189 15.0254C103.623 14.7324 103.042 14.5176 102.446 14.3809C101.851 14.2344 101.235 14.1611 100.601 14.1611C99.1357 14.1611 97.9492 14.8203 97.041 16.1387C96.3184 17.1934 95.6982 18.5996 95.1807 20.3574C94.6631 22.1152 94.4043 23.6973 94.4043 25.1035C94.4043 25.8066 94.5215 26.334 94.7559 26.6855C94.9902 27.0371 95.3418 27.2129 95.8105 27.2129C97.6758 27.2129 100.122 24.8496 103.149 20.123ZM120.889 27.6084C118.76 28.7803 116.675 29.3662 114.634 29.3662C113.11 29.3662 111.919 28.8779 111.06 27.9014C110.2 26.915 109.771 25.5527 109.771 23.8145C109.771 20.9238 110.781 18.3555 112.803 16.1094C114.824 13.8633 117.134 12.7402 119.731 12.7402C120.317 12.7402 120.913 12.7988 121.519 12.916C122.134 13.0234 122.759 13.1895 123.394 13.4141L122.588 17.4277H121.152L121.182 17.1641C121.211 16.9199 121.265 16.6025 121.343 16.2119C121.372 16.0068 121.387 15.8311 121.387 15.6846C121.387 15.1084 121.138 14.6787 120.64 14.3955C120.142 14.1123 119.395 13.9707 118.398 13.9707C116.816 13.9707 115.493 14.8594 114.429 16.6367C113.364 18.4043 112.832 20.6064 112.832 23.2432C112.832 24.7275 113.14 25.8457 113.755 26.5977C114.37 27.3398 115.293 27.7109 116.523 27.7109C117.588 27.7109 119.126 27.2666 121.138 26.3779L120.889 27.6084ZM124.565 29L128.418 9.66406C128.574 8.86328 128.652 8.16504 128.652 7.56934C128.652 7.25684 128.56 7.06641 128.374 6.99805C128.198 6.92969 127.588 6.86133 126.543 6.79297L126.279 6.77832L126.455 5.87012H132.065L129.224 20.1377H129.443C134.209 17.6963 136.592 15.6455 136.592 13.9854C136.592 13.6338 136.44 13.3359 136.138 13.0918L139.067 12.916C139.204 13.1797 139.272 13.4189 139.272 13.6338C139.272 15.0889 136.802 17.1152 131.86 19.7129C133.823 22.9453 135.581 25.4355 137.134 27.1836C137.603 27.7207 138.345 28.0137 139.36 28.0625L139.683 28.0771L139.507 29H134.688C132.744 26.6465 130.952 23.9072 129.312 20.7822H129.092L127.407 29H124.565ZM141.528 21.0459L142.144 18.8779H148.823L148.208 21.0459H141.528Z" fill="#8574EB"/>
<g filter="url(#filter0_d_58_5)">
<path fill-rule="evenodd" clip-rule="evenodd" d="M19.904 31.1569C24.26 28.4915 27.234 23.1429 27.234 16.9791C27.234 11.1564 24.58 6.06117 20.6141 3.26818C22.637 1.82676 24.9946 1 27.5117 1C35.0322 1 41.1287 8.38001 41.1287 17.4837C41.1287 26.5874 35.0322 33.9674 27.5117 33.9674C24.694 33.9674 22.0762 32.9314 19.904 31.1569ZM19.904 31.1569C18.0232 32.3076 15.8848 32.9582 13.617 32.9582C6.09653 32.9582 0 25.8041 0 16.9791C0 8.15409 6.09653 1 13.617 1C16.1755 1 18.5692 1.82803 20.6141 3.26818C16.5932 6.13333 13.8948 11.4271 13.8948 17.4837C13.8948 23.1765 16.2787 28.1952 19.904 31.1569Z" fill="#8574EB"/>
</g>
<defs>
<filter id="filter0_d_58_5" x="0" y="1" width="49.1289" height="40.9675" filterUnits="userSpaceOnUse" color-interpolation-filters="sRGB">
<feFlood flood-opacity="0" result="BackgroundImageFix"/>
<feColorMatrix in="SourceAlpha" type="matrix" values="0 0 0 0 0 0 0 0 0 0 0 0 0 0 0 0 0 0 127 0" result="hardAlpha"/>
<feOffset dx="4" dy="4"/>
<feGaussianBlur stdDeviation="2"/>
<feComposite in2="hardAlpha" operator="out"/>
<feColorMatrix type="matrix" values="0 0 0 0 1 0 0 0 0 1 0 0 0 0 1 0 0 0 0.2 0"/>
<feBlend mode="normal" in2="BackgroundImageFix" result="effect1_dropShadow_58_5"/>
<feBlend mode="normal" in="SourceGraphic" in2="effect1_dropShadow_58_5" result="shape"/>
</filter>
</defs>
</svg>
