<svg width="54" height="53" viewBox="0 0 54 53" fill="none" xmlns="http://www.w3.org/2000/svg">
<circle cx="27" cy="26.5" r="26.5" fill="black" fill-opacity="0.38"/>
<path d="M42.5791 18.3238C41.4724 18.8047 40.3015 19.1215 39.1034 19.2642C40.3626 18.5269 41.3095 17.3555 41.7666 15.9698C40.5761 16.6659 39.2758 17.1544 37.9215 17.4142C37.3512 16.8165 36.6653 16.341 35.9055 16.0166C35.1457 15.6922 34.3279 15.5258 33.5017 15.5273C30.1569 15.5273 27.4501 18.1947 27.4501 21.483C27.4478 21.9404 27.5002 22.3964 27.6062 22.8413C25.2078 22.7289 22.8592 22.117 20.7108 21.0449C18.5623 19.9728 16.6613 18.464 15.1294 16.6152C14.5919 17.5212 14.3077 18.5549 14.3064 19.6084C14.3064 21.6735 15.3838 23.499 17.0107 24.5684C16.0468 24.5455 15.1027 24.2904 14.2585 23.8247V23.8985C14.2585 26.7872 16.3482 29.1904 19.114 29.7374C18.5939 29.876 18.0579 29.9463 17.5197 29.9464C17.1377 29.947 16.7566 29.91 16.382 29.8357C17.1509 32.202 19.3887 33.923 22.0396 33.9721C19.8856 35.6322 17.241 36.5294 14.5215 36.5228C14.0388 36.5221 13.5565 36.4934 13.0771 36.4368C15.8437 38.2034 19.0596 39.1378 22.342 39.1288C33.4888 39.1288 39.5785 30.0508 39.5785 22.1775C39.5785 21.9194 39.5717 21.6612 39.5595 21.4092C40.7414 20.5685 41.764 19.5236 42.5791 18.3238Z" fill="white"/>
</svg>
